<?xml version="1.0"?>
<svg xmlns="http://www.w3.org/2000/svg" height="512px" viewBox="0 0 59 59" width="512px" class=""><g><g id="Page-1" fill="none" fill-rule="evenodd"><g id="019---Fantasy-Book" fill-rule="nonzero"><path id="Shape" d="m49.32 18.75c3.12.74 7.48.85 8.68-4.67-2.9804185.307196-5.9143954-.9115329-7.8-3.24l-3.78-5.78c-2.57-2.15-5.78-1.6-7.14.35l-4.18.11c-1.3232617-1.01555898-2.9522503-1.55150328-4.62-1.52-4.58 0-5.5 5.41-5.5 5.41-2.0384641-1.99873524-5.3015359-1.99873524-7.34 0-3.54 3.01-1.83 7.48-1.83 7.48s-6.42-.94-8.26 5.6 1.84 10.28 1.84 10.28-6.42.93-6.42 8.41c-.01542048 1.3535913.36707686 2.6819003 1.1 3.82l13.93 1z" fill="#ff5364" data-original="#FF5364" class="" style="fill:#A02EA3" data-old_color="#ff5364"/><path id="Shape" d="m54.26 1c-.3011215 1.90262729-.8665872 3.75385443-1.68 5.5-.32.74-.71 1.54-1.17 2.37h-.01c-.35.64-.75 1.3-1.2 1.97-1.1702082 1.7532604-2.5172655 3.3817923-4.02 4.86l-5.18-.7.18-5.63c.58-.56 1.29-1.2 2.1-1.88.51-.44 1.07-.89 1.67-1.35.4666667-.36.9566667-.72 1.47-1.08 2.4113335-1.71212237 5.0502127-3.07868482 7.84-4.06z" fill="#f0c419" data-original="#F0C419" class="active-path" style="fill:#F0C419"/><path id="Shape" d="m52.58 6.5c-.32.74-.71 1.54-1.17 2.37h-.01c-.803653.1587534-1.6208174.23913022-2.44.24-1.89054.01521964-3.7498336-.48243515-5.38-1.44l-.3-.18c.51-.44 1.07-.89 1.67-1.35 2.1109048 1.07463467 4.5579402 1.28274032 6.82.58z" fill="#f29c1f" data-original="#F29C1F" class=""/><path id="Shape" d="m55.97 29c0 5.61-1.71 7-5.45 7-2.8 0-3.73-2.07-5.6-3-1.77-.88-1.86-.09-6.64-.01.0367531.6545586.1646527 1.3007882.38 1.92.5683203 1.6063885 1.4220143 3.0969653 2.52 4.4 2.13 2.66 4.27 3.81 5.88 5.69l-16.06 3-15.03-3v-7c0-.04 0-.54.05-1.38.2855067-5.5059045 1.5273811-10.9200706 3.67-16 3.74-8.41 14.01-9.62 14.01-9.62.2203042-1.88090635.6911436-3.72390627 1.4-5.48.56-1.22 1.33-2.05 2.34-1.72 2.81.94 4.53 8.2 4.53 8.2s14 11.39 14 17z" fill="#ecf0f1" data-original="#ECF0F1" class=""/><path id="Shape" d="m42.967 22c-.262482-.0013707-.5139013-.1058893-.7-.291-.591634-.6391242-1.4230749-1.0024558-2.294-1.0024558s-1.702366.3633316-2.294 1.0024558c-.3923789.3789722-1.0160848.3735524-1.4018186-.0121814s-.3911536-1.0094397-.0121814-1.4018186c.9565988-1.0318245 2.2999666-1.6182608 3.707-1.6182608s2.7504012.5864363 3.707 1.6182608c.2851253.2868237.3694145.7171518.213569 1.0903493-.1558456.3731976-.5211398.6157817-.925569.6146507z" fill="#3f5c6c" data-original="#3F5C6C" class=""/><circle id="Oval" cx="52.967" cy="31" fill="#a5a5a4" r="1" data-original="#A5A5A4"/><path id="Shape" d="m38.28 32.99h-.04c-.25.01-.48.02-.8.01-4.44 0-4.6-4.48-4.6-5 0-.5522847-.4477153-1-1-1s-1 .4477153-1 1c0 2.42 1.38 7 6.6 7 .31 0 .59 0 .88-.01.1178105-.0015587.2338549-.0288632.34-.08-.2153473-.6192118-.3432469-1.2654414-.38-1.92z" fill="#d1d4d1" data-original="#D1D4D1" class=""/><g fill="#f3d55b"><path id="Shape" d="m11 3c-.5522847 0-1-.44771525-1-1v-1c0-.55228475.4477153-1 1-1s1 .44771525 1 1v1c0 .55228475-.4477153 1-1 1z" data-original="#F3D55B"/><path id="Shape" d="m14 5h-1c-.5522847 0-1-.44771525-1-1s.4477153-1 1-1h1c.5522847 0 1 .44771525 1 1s-.4477153 1-1 1z" data-original="#F3D55B"/><path id="Shape" d="m11 8c-.5522847 0-1-.44771525-1-1v-1c0-.55228475.4477153-1 1-1s1 .44771525 1 1v1c0 .55228475-.4477153 1-1 1z" data-original="#F3D55B"/><path id="Shape" d="m9 5h-1c-.55228475 0-1-.44771525-1-1s.44771525-1 1-1h1c.55228475 0 1 .44771525 1 1s-.44771525 1-1 1z" data-original="#F3D55B"/><path id="Shape" d="m4 13c-.55228475 0-1-.4477153-1-1v-1c0-.5522847.44771525-1 1-1s1 .4477153 1 1v1c0 .5522847-.44771525 1-1 1z" data-original="#F3D55B"/><path id="Shape" d="m7 15h-1c-.55228475 0-1-.4477153-1-1s.44771525-1 1-1h1c.55228475 0 1 .4477153 1 1s-.44771525 1-1 1z" data-original="#F3D55B"/><path id="Shape" d="m4 18c-.55228475 0-1-.4477153-1-1v-1c0-.5522847.44771525-1 1-1s1 .4477153 1 1v1c0 .5522847-.44771525 1-1 1z" data-original="#F3D55B"/><path id="Shape" d="m2 15h-1c-.55228475 0-1-.4477153-1-1s.44771525-1 1-1h1c.55228475 0 1 .4477153 1 1s-.44771525 1-1 1z" data-original="#F3D55B"/></g><path id="Shape" d="m57 45h-54c-1.1045695 0-2 .8954305-2 2v10c0 1.1045695.8954305 2 2 2h54c1.1045695 0 2-.8954305 2-2v-10c0-1.1045695-.8954305-2-2-2z" fill="#f0c419" data-original="#F0C419" class="active-path" style="fill:#F0C419"/><path id="Rectangle-path" d="m49 45h4v14h-4z" fill="#f29c1f" data-original="#F29C1F" class=""/><path id="Rectangle-path" d="m7 45h4v14h-4z" fill="#f29c1f" data-original="#F29C1F" class=""/><rect id="Rectangle-path" fill="#f5efca" height="4" rx="1" width="14" x="15" y="50" data-original="#F5EFCA" class="" style="fill:#F5EFCA"/><path id="Shape" d="m45 56c-.5522847 0-1-.4477153-1-1v-6c0-.5522847.4477153-1 1-1s1 .4477153 1 1v6c0 .5522847-.4477153 1-1 1z" fill="#3f5c6c" data-original="#3F5C6C" class=""/><path id="Shape" d="m41 54c-.5522847 0-1-.4477153-1-1v-2c0-.5522847.4477153-1 1-1s1 .4477153 1 1v2c0 .5522847-.4477153 1-1 1z" fill="#3f5c6c" data-original="#3F5C6C" class=""/></g></g></g> </svg>
